<?xml version="1.0" encoding="utf-8"?>
<!-- Generator: Adobe Illustrator 22.1.0, SVG Export Plug-In . SVG Version: 6.00 Build 0)  -->
<svg version="1.1" id="b465a16a-1202-4755-ab2a-5eeee67c4d89"
	 xmlns="http://www.w3.org/2000/svg" xmlns:xlink="http://www.w3.org/1999/xlink" x="0px" y="0px" viewBox="0 0 902 702"
	 style="enable-background:new 0 0 902 702;" xml:space="preserve">
<style type="text/css">
	.st0{fill:#6EB262;}
	.st1{fill:#3F3D56;}
	.st2{fill:#092804;}
	.st3{fill:#1A1A1E;}
	.st4{fill:#6D6D72;}
	.st5{fill:#E0B6C3;}
	.st6{fill:#DEDEE2;}
	.st7{fill:#0959AF;}
	.st8{fill:#D0CDE1;}
	.st9{fill:#6A85EA;}
	.st10{opacity:0.15;enable-background:new    ;}
	.st11{fill:#E5CF2C;}
	.st12{opacity:0.1;fill:#0F0E02;enable-background:new    ;}
	.st13{fill:#FFFFFF;}
</style>
<title>pay_online</title>
<path class="st0" d="M794.7,652.9c-0.1-0.3-6.4-29.3,6.6-53.4c13-24.1,40.7-34.7,41-34.8l1.3-0.5l0.3,1.3c0.1,0.3,6.4,29.3-6.6,53.4
	c-13,24.1-40.7,34.7-41,34.8l-1.3,0.5L794.7,652.9z M841.8,567.5c-5.6,2.4-27.5,12.8-38.4,33.2c-11,20.3-7.7,44.4-6.6,50.3
	c5.5-2.4,27.4-12.8,38.4-33.2C846.1,597.5,842.8,573.4,841.8,567.5L841.8,567.5z"/>
<path class="st0" d="M827.3,610.5c-23.3,14-32.3,41.9-32.3,41.9s28.8,5.1,52.2-8.9s32.3-41.9,32.3-41.9S850.7,596.4,827.3,610.5z"/>
<path class="st1" d="M320.4,526c-2.8,0-5.6,0-8.3-0.1l0.1-2c4,0.1,8,0.2,12,0.1l0,2C322.9,526,321.7,526,320.4,526z M336.2,525.5
	l-0.1-2c4-0.2,8-0.6,11.9-1l0.2,2C344.2,525,340.2,525.3,336.2,525.5z M300.1,525.2c-4-0.3-8-0.7-12-1.2l0.2-2
	c3.9,0.5,7.9,0.9,11.9,1.2L300.1,525.2z M360.1,523l-0.3-2c3.9-0.6,7.9-1.3,11.8-2.1l0.4,2C368.1,521.7,364.1,522.4,360.1,523z
	 M276.2,522.3c-3.9-0.7-7.9-1.4-11.8-2.3l0.4-2c3.9,0.8,7.8,1.6,11.7,2.3L276.2,522.3z M383.7,518.3l-0.5-1.9c3.9-1,7.7-2,11.5-3.1
	l0.6,1.9C391.5,516.3,387.6,517.4,383.7,518.3z M252.6,517.2c-3.9-1-7.8-2.2-11.6-3.4l0.6-1.9c3.8,1.2,7.6,2.3,11.5,3.3L252.6,517.2
	z M406.8,511.5l-0.7-1.9c3.7-1.3,7.5-2.7,11.2-4.2l0.7,1.9C414.4,508.8,410.6,510.2,406.8,511.5z M229.7,509.9
	c-3.8-1.4-7.5-2.9-11.2-4.4l0.8-1.8c3.7,1.5,7.4,3,11.1,4.4L229.7,509.9z M429.1,502.5l-0.8-1.8c3.6-1.6,7.2-3.4,10.7-5.2l0.9,1.8
	C436.4,499.1,432.8,500.9,429.1,502.5z M450.5,491.6l-1-1.7c3.4-2,6.9-4,10.2-6.1l1.1,1.7C457.5,487.5,454,489.6,450.5,491.6z
	 M470.9,478.8l-1.1-1.6c3.2-2.3,6.5-4.6,9.6-7.1l1.2,1.6C477.4,474.1,474.1,476.5,470.9,478.8z M166,475.9c-3.2-2.3-6.5-4.8-9.6-7.3
	l1.2-1.6c3.1,2.5,6.3,4.9,9.5,7.2L166,475.9z M489.9,464.1l-1.3-1.5c3-2.6,6-5.2,9-7.9l1.4,1.5C496,458.8,493,461.5,489.9,464.1z
	 M147.2,460.9c-3-2.6-6-5.4-8.9-8.1l1.4-1.4c2.9,2.7,5.8,5.5,8.8,8.1L147.2,460.9z M507.6,447.7l-1.4-1.4c2.8-2.8,5.5-5.8,8.2-8.7
	l1.5,1.3C513.2,441.9,510.4,444.9,507.6,447.7L507.6,447.7z M129.8,444.2c-2.8-2.9-5.5-5.9-8.1-8.9l1.5-1.3c2.6,3,5.3,6,8,8.8
	L129.8,444.2z M523.7,429.9l-1.5-1.3c2.5-3.1,5-6.2,7.4-9.4l1.6,1.2C528.8,423.6,526.3,426.8,523.7,429.9z M114.1,426.1
	c-2.5-3.1-4.9-6.4-7.2-9.6l1.6-1.2c2.3,3.2,4.7,6.4,7.2,9.5L114.1,426.1z M538.2,410.6l-1.7-1.1c2.2-3.3,4.4-6.7,6.5-10l1.7,1
	C542.6,403.8,540.4,407.3,538.2,410.6z M100,406.5c-2.2-3.3-4.3-6.8-6.3-10.2l1.7-1c2,3.4,4.1,6.8,6.3,10.1L100,406.5z M550.8,390
	l-1.8-1c1.9-3.5,3.8-7,5.5-10.6l1.8,0.9C554.6,382.9,552.7,386.5,550.8,390L550.8,390z M561.4,368.4l-1.8-0.8
	c1.6-3.6,3.1-7.4,4.5-11.1l1.9,0.7C564.6,361,563.1,364.7,561.4,368.4L561.4,368.4z M77.5,364.1c-1.5-3.7-3-7.4-4.4-11.2l1.9-0.7
	c1.4,3.7,2.8,7.5,4.3,11.1L77.5,364.1z M570.1,345.9l-1.9-0.6c1.2-3.8,2.4-7.6,3.5-11.4l1.9,0.5
	C572.5,338.2,571.4,342.1,570.1,345.9L570.1,345.9z M69.3,341.5c-1.2-3.8-2.3-7.7-3.3-11.6l1.9-0.5c1,3.8,2.1,7.7,3.3,11.5
	L69.3,341.5z M576.6,322.7l-1.9-0.5c0.9-3.9,1.7-7.8,2.4-11.7l2,0.4C578.3,314.8,577.5,318.8,576.6,322.7z M63.2,318.2
	c-0.8-3.9-1.6-7.9-2.2-11.8l2-0.3c0.6,3.9,1.4,7.9,2.2,11.7L63.2,318.2z M581,299l-2-0.3c0.5-3.9,1-7.9,1.4-11.9l2,0.2
	C582,291,581.5,295.1,581,299z M59.3,294.4c-0.5-4-0.9-8-1.2-12l2-0.1c0.3,4,0.7,8,1.1,11.9L59.3,294.4z M583.1,275l-2-0.1
	c0.2-4,0.3-8,0.3-11.9h2C583.4,267,583.3,271,583.1,275z M57.5,270.4c-0.1-2.5-0.1-5-0.1-7.4c0-1.5,0-3.1,0-4.6l2,0c0,1.5,0,3,0,4.6
	c0,2.5,0,4.9,0.1,7.4L57.5,270.4z M59.9,246.5l-2-0.1c0.2-4,0.6-8,1-12l2,0.2C60.5,238.5,60.2,242.5,59.9,246.5L59.9,246.5z
	 M580.1,234.3c-0.4-3.9-0.9-5.9-1.5-9.8l2-0.3c0.6,4,1.1,7,1.5,10.9L580.1,234.3z M62.5,222.7l-2-0.3c0.6-4,1.3-7.9,2.1-11.9l2,0.4
	C63.8,214.9,63.1,218.8,62.5,222.7L62.5,222.7z M576.6,212.7c-0.8-3.9-1.6-7.8-2.6-11.7l1.9-0.5c0.9,3.9,1.8,7.8,2.6,11.8
	L576.6,212.7z M67.2,199.3l-1.9-0.5c1-3.9,2-7.8,3.2-11.6l1.9,0.6C69.3,191.6,68.2,195.5,67.2,199.3z M570.9,189.5
	c-1.1-3.8-2.3-7.6-3.6-11.4l1.9-0.7c1.3,3.8,2.5,7.6,3.7,11.5L570.9,189.5z M74.1,176.4l-1.9-0.7c1.3-3.8,2.8-7.6,4.3-11.3l1.9,0.8
	C76.9,168.9,75.4,172.7,74.1,176.4z M563.2,166.9c-1.5-3.7-3-7.4-4.6-11l1.8-0.8c1.6,3.6,3.2,7.4,4.7,11.1L563.2,166.9z M83.1,154.2
	l-1.8-0.8c1.7-3.6,3.4-7.3,5.3-10.8l1.8,0.9C86.5,147,84.8,150.6,83.1,154.2z M553.4,145.2c-1.8-3.5-3.7-7.1-5.6-10.5l1.7-1
	c2,3.5,3.9,7,5.7,10.6L553.4,145.2z M94.1,132.9l-1.7-1c2-3.5,4.1-6.9,6.3-10.3l1.7,1.1C98.1,126.1,96.1,129.5,94.1,132.9z
	 M541.6,124.4c-2.1-3.4-4.3-6.7-6.6-10l1.6-1.1c2.3,3.3,4.5,6.6,6.6,10L541.6,124.4z M107,112.8l-1.6-1.2c2.3-3.3,4.7-6.5,7.2-9.7
	l1.6,1.2C111.6,106.3,109.2,109.5,107,112.8z M528,104.8c-2.4-3.2-4.9-6.3-7.5-9.3l1.5-1.3c2.6,3.1,5.1,6.2,7.5,9.4L528,104.8z
	 M121.6,93.9l-1.5-1.3c2.6-3,5.3-6.1,8-9l1.5,1.4C126.9,87.9,124.2,90.9,121.6,93.9z M512.7,86.5c-2.7-2.9-5.5-5.8-8.3-8.6l1.4-1.4
	c2.8,2.8,5.6,5.7,8.3,8.7L512.7,86.5z M137.9,76.4l-1.4-1.4c2.9-2.8,5.8-5.6,8.8-8.2l1.3,1.5C143.7,70.9,140.8,73.6,137.9,76.4
	L137.9,76.4z M495.7,69.6c-2.9-2.7-6-5.3-9-7.8l1.3-1.5c3.1,2.5,6.1,5.2,9.1,7.9L495.7,69.6z M155.7,60.5l-1.3-1.6
	c3.1-2.5,6.3-5,9.5-7.4l1.2,1.6C162,55.5,158.8,58,155.7,60.5L155.7,60.5z M174.9,46.3l-1.1-1.7c3.3-2.2,6.7-4.4,10.1-6.5l1,1.7
	C181.6,41.9,178.2,44.1,174.9,46.3L174.9,46.3z M195.3,33.9l-1-1.8c3.5-1.9,7.1-3.8,10.7-5.5l0.9,1.8
	C202.3,30.1,198.8,32,195.3,33.9z M436.7,29.3c-3.6-1.8-7.2-3.5-10.8-5.1l0.8-1.8c3.7,1.6,7.3,3.3,10.9,5.1L436.7,29.3z M216.7,23.4
	l-0.8-1.8c3.7-1.6,7.4-3.1,11.1-4.5l0.7,1.9C224.1,20.3,220.4,21.8,216.7,23.4z M414.8,19.6c-3.7-1.4-7.5-2.8-11.3-4.1l0.6-1.9
	c3.8,1.3,7.6,2.7,11.4,4.1L414.8,19.6z M239,14.9l-0.6-1.9c3.8-1.2,7.7-2.4,11.5-3.5l0.5,1.9C246.7,12.5,242.8,13.7,239,14.9z
	 M392.1,12c-3.8-1.1-7.7-2.1-11.6-3L381,7c3.9,0.9,7.8,1.9,11.7,3L392.1,12z M262.1,8.6l-0.4-1.9c3.9-0.9,7.9-1.7,11.8-2.4l0.4,2
	C269.9,6.9,265.9,7.7,262.1,8.6z M368.8,6.5c-3.9-0.7-7.9-1.4-11.8-1.9l0.3-2c4,0.6,8,1.2,11.9,1.9L368.8,6.5z M285.6,4.3l-0.3-2
	c4-0.5,8-1,12-1.3l0.2,2C293.5,3.3,289.5,3.8,285.6,4.3z M345.2,3.2c-3.9-0.4-7.9-0.7-11.9-0.8l0.1-2c4,0.2,8,0.5,12,0.9L345.2,3.2z
	 M309.4,2.2l-0.1-2C313,0.1,316.7,0,320.4,0l0.9,0l0,2l-0.9,0C316.7,2,313,2.1,309.4,2.2z"/>
<rect x="169" y="652.3" class="st2" width="733" height="2"/>
<path class="st3" d="M598,316l10,155c0,0,24,61,23,119c0,0-9,23-2,27s11,7,7,10s-7,10-4,12s4,5,3,5h-30c0,0,6-15-3-19s-4-14-4-14
	l-67-196l-53,180c0,0,9,6,2,9s-10-3-7,3s-1,9-1,10s-30-3-30-3s15-13,8-16s-10-6-8-8s10-21,10-21s4-72,5-75s0-17,0-24s-1-35,2-42
	s6-93,22-103S598,316,598,316z"/>
<path class="st4" d="M471,612c0,0,20,41,6,46s-32,1-36,7s-48,13-49-2s48-43,48-43l6.4-10.3L471,612z"/>
<path class="st4" d="M633,642c0,0,20,41,6,46s-32,1-36,7s-48,13-49-2s48-43,48-43l6.4-10.3L633,642z"/>
<circle class="st5" cx="540.5" cy="94.5" r="33"/>
<polygon class="st5" points="563,112 559,141 529,164 521,153 521,115 "/>
<path class="st6" d="M516,149c0,0,31,3,47-8l32,189c0,0-113,9-118,3v-59l20-96L516,149z"/>
<path class="st7" d="M560.3,132l10.8,9c0,0,44,7,41,19l-12,142l4,48c0,0-34-9-60,0s-5.3-193.4-5.3-193.4S562.5,135,560.3,132z"/>
<path class="st7" d="M521,142.9c0,0-32,23.1-36,38.1s-17,173-17,173s6-3,9,2S526,150.8,521,142.9z"/>
<path class="st3" d="M507.5,93.1c0,0-3.6-5.4-2.2-11.1c0.8-3.3,1.1-6.7,1-10c0,0,2.9-9.3,5.8-14.6s1.5-7.4,10.6-9.1
	s5.4-13.5,29.3-0.7c1.6,2.3,4.5,3.4,7.3,2.7c4.9-1,6.7,5.9,6.7,5.9s3.3-1.9,4.5,0.8s10.1-1.6,10.1,16.9s-10,35.1-10,35.1
	s0.7-31.2-15.6-34.4s-33.9-12.4-38.2-0.5C514.4,80.8,511.3,87.2,507.5,93.1z"/>
<ellipse class="st5" cx="570.8" cy="96.2" rx="3.2" ry="4.3"/>
<path class="st8" d="M435.3,405.4c-7.9-4.8-17.5-4.4-21.1-4c1.4,3.4,5.5,12,13.4,16.7c7.9,4.8,17.5,4.4,21.1,4
	C447.4,418.8,443.2,410.2,435.3,405.4z"/>
<path class="st8" d="M472.5,499.9H423c-6.1,0-11.1,5-11.1,11.1c0,6.1,5,11.1,11.1,11.1h49.5c6.1,0,11.1-5,11.1-11.1
	C483.6,504.9,478.6,499.9,472.5,499.9z"/>
<path class="st9" d="M696.4,382.4H419.2c-13.6,0-24.6,11-24.6,24.6c0,0,0,0,0,0v135.1c0,13.6,11,24.6,24.6,24.6c0,0,0,0,0,0h277.3
	c13.6,0,24.6-11,24.6-24.6v0V407C721,393.4,710,382.4,696.4,382.4C696.4,382.4,696.4,382.4,696.4,382.4z M412.3,399.2
	c0.5-0.1,13.5-2.3,24.3,4.2c10.8,6.5,14.9,19,15.1,19.5l0.4,1.3l-1.4,0.2c-2,0.3-4,0.5-6,0.4c-4.9,0-12-0.8-18.3-4.6
	c-10.8-6.5-14.9-19-15.1-19.5l-0.4-1.3L412.3,399.2z M472.5,524.6H423c-7.5,0-13.6-6.1-13.6-13.6c0-7.5,6.1-13.6,13.6-13.6h49.5
	c7.5,0,13.6,6.1,13.6,13.6C486.1,518.5,480,524.6,472.5,524.6z M697.5,522.1c0,8.2-6.7,14.8-14.8,14.8h-37.1
	c-8.2,0-14.8-6.7-14.8-14.8v-22.3c0-8.2,6.7-14.8,14.8-14.8h37.1c8.2,0,14.8,6.7,14.8,14.8L697.5,522.1z"/>
<path class="st8" d="M657.3,517.8h-16.1c-2.4,0-4.3,1.9-4.3,4.3s1.9,4.3,4.3,4.3h16.1c2.4,0,4.3-1.9,4.3-4.3
	S659.7,517.8,657.3,517.8z M657.3,524h-16.1c-1,0-1.9-0.8-1.9-1.8c0-1,0.8-1.9,1.8-1.9c0,0,0,0,0,0h16.1c1,0,1.9,0.8,1.9,1.8
	C659.2,523.1,658.4,524,657.3,524C657.3,524,657.3,524,657.3,524z"/>
<path class="st8" d="M687,517.8h-16.1c-2.4,0-4.3,1.9-4.3,4.3c0,2.4,1.9,4.3,4.3,4.3c0,0,0,0,0,0H687c2.4,0,4.3-1.9,4.3-4.3
	S689.4,517.8,687,517.8z M687,524h-16.1c-1,0-1.9-0.8-1.9-1.8c0-1,0.8-1.9,1.8-1.9c0,0,0,0,0,0H687c1,0,1.9,0.8,1.8,1.9
	C688.8,523.2,688,524,687,524z"/>
<path class="st8" d="M657.3,506.7h-16.1c-2.4,0-4.3,1.9-4.3,4.3c0,2.4,1.9,4.3,4.3,4.3h16.1c2.4,0,4.3-1.9,4.3-4.3
	C661.7,508.6,659.7,506.7,657.3,506.7C657.3,506.7,657.3,506.7,657.3,506.7z M657.3,512.9h-16.1c-1,0-1.9-0.8-1.9-1.9
	c0-1,0.8-1.9,1.9-1.9h16.1c1,0,1.9,0.8,1.9,1.9C659.2,512,658.3,512.9,657.3,512.9z"/>
<path class="st8" d="M687,506.7h-16.1c-2.4,0-4.3,1.9-4.3,4.3c0,2.4,1.9,4.3,4.3,4.3c0,0,0,0,0,0H687c2.4,0,4.3-1.9,4.3-4.3
	C691.3,508.6,689.4,506.7,687,506.7z M687,512.9h-16.1c-1,0-1.9-0.8-1.9-1.9c0-1,0.8-1.9,1.9-1.9H687c1,0,1.9,0.8,1.9,1.9
	C688.9,512,688,512.9,687,512.9L687,512.9z"/>
<path class="st8" d="M657.3,495.5h-16.1c-2.4,0-4.3,1.9-4.3,4.3s1.9,4.3,4.3,4.3h16.1c2.4,0,4.3-1.9,4.3-4.3
	S659.7,495.5,657.3,495.5z M657.3,501.7h-16.1c-1,0-1.9-0.8-1.9-1.9s0.8-1.9,1.9-1.9h16.1c1,0,1.9,0.8,1.9,1.9
	S658.3,501.7,657.3,501.7z"/>
<path class="st8" d="M687,495.5h-16.1c-2.4,0-4.3,1.9-4.3,4.3c0,2.4,1.9,4.3,4.3,4.3c0,0,0,0,0,0H687c2.4,0,4.3-1.9,4.3-4.3
	C691.3,497.5,689.4,495.6,687,495.5z M687,501.7h-16.1c-1,0-1.9-0.8-1.9-1.9s0.8-1.9,1.9-1.9H687c1,0,1.9,0.8,1.9,1.9
	S688,501.7,687,501.7L687,501.7z"/>
<path class="st5" d="M609,352l-7.2,23.4c0,0-1.8,43.6-25.8,37.6s7-57,7-57l7-11L609,352z"/>
<path class="st5" d="M473,352l-7.2,23.4c0,0-1.8,43.6-25.8,37.6s7-57,7-57l7-11L473,352z"/>
<path class="st7" d="M604,153c0,0,16-4,21,23s11,104,11,104l-24,81c0,0-24-13-29-11l18.9-70.3L586,208C586,208,600,153,604,153z"/>
<polygon class="st10" points="580.7,209.4 601.7,279.4 580.7,350.4 592.7,279.4 "/>
<path class="st7" d="M485,208l-36,142c0,0,19,6.3,26,11.3L485,208z"/>
<circle class="st11" cx="107.4" cy="464.9" r="100"/>
<circle class="st12" cx="107.4" cy="464.9" r="86"/>
<path class="st13" d="M103.2,515.6v-12.5c-6.3-0.1-12.9-2.4-16.7-5.5l2.6-8.3c4.5,3.4,10,5.3,15.7,5.3c7.7,0,13-5.1,13-12.1
	c0-6.8-4.3-11-12.3-14.7c-11.1-5-18-10.7-18-21.4c0-10.3,6.4-18.1,16.5-20v-12.5h6.8v12c5,0.1,10,1.6,14.2,4.3l-2.7,8.2
	c-4-2.8-8.8-4.2-13.7-4.2c-8.4,0-11.6,5.7-11.6,10.7c0,6.4,4,9.7,13.5,14.1c11.2,5.2,16.9,11.6,16.9,22.7c0,9.8-6,19-17.2,21.1v12.9
	L103.2,515.6z"/>
<path class="st11" d="M213,668.3c-70.6,10.5-142.4,10.5-213,0v-24c70.7,9.5,142.3,9.5,213,0V668.3z"/>
<path class="st11" d="M213,631.3c-70.6,10.5-142.4,10.5-213,0v-24c70.7,9.5,142.3,9.5,213,0V631.3z"/>
<path class="st11" d="M213,594.3c-70.6,10.5-142.4,10.5-213,0v-24c70.7,9.5,142.3,9.5,213,0V594.3z"/>
</svg>
