<?xml version="1.0" encoding="utf-8"?>
<!-- Generator: Adobe Illustrator 22.1.0, SVG Export Plug-In . SVG Version: 6.00 Build 0)  -->
<svg version="1.1" id="e2165270-d70d-4354-9ac9-1848d055b0c2"
	 xmlns="http://www.w3.org/2000/svg" xmlns:xlink="http://www.w3.org/1999/xlink" x="0px" y="0px" viewBox="0 0 971.4 662"
	 style="enable-background:new 0 0 971.4 662;" xml:space="preserve">
<style type="text/css">
	.st0{fill:#E8EFFF;}
	.st1{fill:#DD9BA1;}
	.st2{fill:#E08487;}
	.st3{fill:#BC777F;}
	.st4{fill:#E0E0E0;}
	.st5{opacity:0.1;enable-background:new    ;}
	.st6{fill:#EEEEEE;}
	.st7{fill:#F2CEE0;}
	.st8{fill:#A0616A;}
	.st9{fill:#0E0E0F;}
	.st10{fill:#549EF7;}
	.st11{fill:#4B92F9;}
	.st12{fill:#FEACAC;}
	.st13{fill:#263179;}
	.st14{opacity:0.4;enable-background:new    ;}
</style>
<path id="back" class="st0" d="M957.3,412.9c0,15.6-1.9,31.1-5.6,46.3c-1.3,5.1-2.7,10.1-4.4,15c-2,6-4.4,12-7.1,17.7
	c-1.4,2.9-2.8,5.8-4.3,8.6c0,16-3.3,31.8-9.7,46.5c-11.6,26.3-32.2,47.5-58.1,59.9c-16.2,7.7-34,11.8-52,11.9H199.3
	c-27.4,0.1-54.4-7.1-78.2-20.9c-3.5-2-6.9-4.2-10.3-6.5c-7.2-5-14-10.6-20.3-16.7c-8.5-8.3-16-17.6-22.3-27.7
	c-14.9-23.6-22.7-50.9-22.7-78.8C30.4,441.7,21.6,410,21.6,376c0-42.9,13.9-82,36.9-111.7c4.8-6.2,10-12,15.7-17.4
	c5.6-5.4,11.6-10.3,17.9-14.7c5.1-3.5,10.4-6.7,15.9-9.5c2.3-1.2,4.6-2.3,6.9-3.3c2.1-0.9,4.1-1.8,6.2-2.6c2.5-1,5.1-1.8,7.7-2.6
	s5.1-1.5,7.7-2.1c3.7-0.9,7.5-1.6,11.3-2.2c3.2-0.5,6.4-0.8,9.5-1c2.5-0.2,5.1-0.3,7.6-0.3h1.4c2.8,0,5.6,0.1,8.4,0.3
	c0.3-0.6,0.6-1.2,0.9-1.8c1.1-2.1,2.3-4.2,3.4-6.3v-0.1c0.2-0.4,0.4-0.7,0.6-1.1c0.9-1.7,1.9-3.4,2.9-5c0.5-0.8,0.9-1.5,1.4-2.3
	c0.1-0.2,0.2-0.4,0.3-0.5c0.5-0.8,1-1.6,1.5-2.4c2.5-3.9,5-7.8,7.7-11.6c0.2-0.3,0.4-0.6,0.7-1c0.4-0.6,0.8-1.2,1.3-1.7
	c1.1-1.5,2.2-3.1,3.4-4.6c0.8-1.1,1.6-2.1,2.4-3.2c2.1-2.7,4.2-5.3,6.4-7.9c2.2-2.6,4.5-5.3,6.8-7.8c0.3-0.4,0.6-0.7,1-1.1l3.4-3.7
	l0,0c0.2-0.2,0.3-0.3,0.5-0.5l0,0c0.4-0.4,0.8-0.9,1.2-1.3c1.8-1.9,3.7-3.8,5.6-5.7c9.6-9.5,19.8-18.4,30.5-26.5
	c0.4-0.3,0.9-0.7,1.3-1c2-1.5,4.1-3,6.1-4.5c11.3-8.1,23.1-15.4,35.3-22c0.8-0.5,1.7-0.9,2.6-1.4c11-5.8,22.2-11,33.8-15.5
	c6.3-2.5,12.7-4.8,19.2-7c4.3-1.4,8.6-2.7,13-4c6.8-1.9,13.6-3.7,20.6-5.3c20.4-4.6,41.2-7.4,62.2-8.5c6.4-0.3,12.8-0.5,19.3-0.5
	c31.4,0,62.6,3.9,92.9,11.8c0.6,1,1.7,1.5,2.9,1.5h2.7c1.2,0.3,2.3,0.6,3.5,1c6.5,1.9,12.9,3.9,19.2,6.1l1.6,0.6
	c15.5,5.5,30.6,12.2,45.2,19.9c13.1,6.9,25.8,14.7,37.9,23.4c1.9,1.3,3.7,2.7,5.5,4c2.2-1.4,4.4-2.8,6.7-4c8.8-5,18.1-8.9,27.7-11.8
	c20.2-6,41.6-6.8,62.2-2.4c26.4,5.6,50.3,19.5,69.6,39.3c7.9,8.1,14.9,16.9,20.9,26.4c0.4,0.7,0.9,1.4,1.3,2.1
	c5.2,8.4,9.6,17.3,13.3,26.5c0.1,0.3,0.3,0.7,0.4,1c3.4,8.6,6.1,17.5,8.2,26.5c0.1,0.5,0.2,0.9,0.3,1.4c1.9,8.7,3.2,17.6,3.9,26.5
	c0,0.3,0,0.6,0.1,1c0.3,4.6,0.5,9.3,0.5,14c0,4.2-0.1,8.4-0.4,12.5c0,0.5-0.1,0.9-0.1,1.4c-0.1,1.2-0.2,2.4-0.3,3.6
	c6.1,4.9,11.7,10.2,17,16c2.3,2.5,4.6,5.2,6.7,7.9c6.6,8.3,12.4,17.1,17.3,26.5C949.6,351.1,957.3,381,957.3,412.9z"/>
<title>Designer</title>
<path class="st1" d="M145.8,537.8c-7,26.6-31.5,43.2-31.5,43.2s-13.2-26.5-6.2-53.1s31.5-43.2,31.5-43.2S152.8,511.2,145.8,537.8z"
	/>
<path class="st2" d="M135.2,532.2c-19.6,19.3-21.8,48.8-21.8,48.8s29.5-1.8,49.1-21.2s21.8-48.8,21.8-48.8S154.8,512.9,135.2,532.2z
	"/>
<path class="st3" d="M83.3,573.2h76.5c8.4,0,15.2,6.8,15.2,15.2v15.1c0,8.4-6.8,15.2-15.2,15.2H83.3c-8.4,0-15.2-6.8-15.2-15.2
	v-15.1C68.1,580,74.9,573.2,83.3,573.2z"/>
<rect y="615.6" class="st4" width="971.4" height="32.9"/>
<rect x="41.2" y="648.5" class="st4" width="889.1" height="13.5"/>
<rect x="41.2" y="648.5" class="st5" width="889.1" height="4.5"/>
<path class="st6" d="M832.8,476c-1.3,0.2-2.7,0.6-3.3,1.7c-1,1.8,0.8,3.8,2.4,5c3,2.3,6.2,4.5,8.2,7.6s2.7,7.6,0.5,10.6
	c-2.9,3.9-9.9,4.8-10.5,9.7c-0.4,3.1,2.3,5.8,5,7.3c6.7,3.9,15.4,4.9,20.3,10.9c2-4.2,6.5-6.6,11-7.6s9.2-0.9,13.7-1.6
	c1.5-0.2,3.1-0.7,3.8-2c1.3-2.6-2.4-5.7-1.1-8.3c1-2,3.8-1.8,5.8-2.6c3.3-1.3,4.7-5.6,3.8-9s-3.6-6.1-6.4-8.4
	c-7.6-6-16.7-9.5-25.9-12c-4.3-1.2-9.3-3-13.8-3.2C841.9,473.9,837,475.3,832.8,476z"/>
<g id="man">
	<circle class="st7" cx="488" cy="136.6" r="64.5"/>
	<path class="st7" d="M439.9,168.9c0,0,12.2,91.6-6.5,101.9C414.6,281.1,544.6,282,544.6,282s-29-79.5-15.9-103.8L439.9,168.9z"/>
	<path class="st8" d="M559.1,580.8c0,0-4.2,1.4-11,3.5c-15,4.5-42.8,12-66.3,13.5c-20.3,1.3-37.4-1.8-40.5-15
		c-1.3-5.7,0.6-10.4,4.7-14.2c12.4-11.5,44.8-15.6,70.4-17c7.2-0.4,14-0.6,19.5-0.6c9.5-0.1,15.7,0.1,15.7,0.1l0.1,0.6L559.1,580.8z
		"/>
	<path class="st9" d="M434.3,75.6l-12.1-4.8c0,0,25.2-27.8,60.3-25.4l-9.9-10.9c0,0,24.1-9.7,46.1,15.7c11.5,13.3,24.9,29,33.2,46.7
		h12.9l-5.4,11.9l18.9,11.9l-19.4-2.1c1.2,6.5,1.3,13.1,0.5,19.7s-4.2,12.5-9.3,16.7l0,0c0,0-15-31-15-35.8v12.1
		c0,0-12.1-10.9-12.1-18.1l-6.6,8.5l-3.3-13.3l-40.6,13.3l6.6-10.9l-25.2,3.6l9.9-13.3c0,0-28.5,15.7-29.6,29
		c-1.1,13.3-9.4,25.9-9.4,25.9S402.5,93.7,434.3,75.6z"/>
	<path class="st10" d="M709.7,508.8c-6.6,7.1-22.9,17.9-42.6,29.5c-7.3,4.3-15.2,8.8-23.1,13.2c-19,10.6-39,21-55.4,29.5
		c-21.4,11-36.9,18.6-36.9,18.6s-1.3-6.7-3.5-15.2c-2.9-11.5-7.2-26.3-11.7-32.8c-0.2-0.2-0.3-0.4-0.5-0.6c-1.3-1.7-2.6-2.7-3.9-2.7
		l65.3-40.5l28.2-17.5l-20.3-48.5l-25.5-60.9l15.4-49l15.5-49.2h29c0,0,9.6,21,21.9,50.2c1.8,4.4,3.7,8.9,5.7,13.6
		C692.3,407.7,723.8,493.5,709.7,508.8z"/>
	<path class="st8" d="M489,622.9c-16.1,20-82.7-21.9-106-37.5c-5.1-3.4-8.1-5.5-8.1-5.5l21.3-28.4l6.7-9c0,0,6,3.2,15,8.4
		c0.3,0.2,0.6,0.4,1,0.6c7.7,4.5,17.4,10.4,27.1,17c13.5,9.1,27.1,19.5,35.8,29.3C490.4,607.3,494.3,616.3,489,622.9z"/>
	<path class="st10" d="M417.9,550.9c-2.4,0-4.8,0.2-7.1,0.6c-20.2,3.5-26.1,21.7-27.8,34c-0.5,3.7-0.7,7.5-0.6,11.3L364.5,583
		l-6.5-5c-15.6-5.4-29.6-15.1-41.6-26.5c-10.5-10.1-19.9-21.2-28-33.2c-8.1-11.9-15.4-24.3-21.7-37.2c-3.6-7.3-3.7-15.8-0.4-23.2
		l22.1-49.2l32.3-71.9c0.2-1.7,0.5-3.4,0.8-5c6.4-36.7,23.5-53,23.5-53h13l8.8,53l10.9,65.8l-7.6,24.9l-17.6,57.4l16.8,18.3
		L417.9,550.9z"/>
	<path class="st11" d="M639.5,282.5l-10.8,49.2l-22.9,104.2l-0.7,5.7l-7.9,66l-5.2,43.9l-3.5,29.5c-21.4,11-36.9,18.6-36.9,18.6
		s-1.3-6.7-3.5-15.2c-15,4.5-42.8,12-66.3,13.5c8.6,9.6,12.5,18.5,7.2,25.2c-16.1,20-82.7-21.9-106-37.5c-0.5,3.7-0.7,7.5-0.6,11.3
		L364.5,583l1.8-31.5l3-53.4l3.7-66.9c-1.2-2.9-2.2-5.8-3-8.8c-5.5-19.4-12.1-58.2-17.2-90.7c-4.1-26.2-7.2-48.3-7.8-53
		c-0.1-0.6-0.1-0.9-0.1-0.9l98.7-43.6c7,16.3,39.8,21.1,39.8,21.1c27.1-1.9,48.4-16.2,48.4-16.2L639.5,282.5z"/>
	<path class="st12" d="M432.7,397.6l11.2,13.1c4.2-0.8,8.5-1.7,13-2.8l-3.2-10.3l7.9,9.2c47.4-11.7,106.1-34.3,106.1-34.3
		s-63.4,4.6-110.7-5.7c-20.9-4.6-42.5,5.8-51.1,25.4c-5,11.4-4.2,21.3,13.5,21.3c6-0.1,12-0.7,17.9-1.7L432.7,397.6z"/>
	<path class="st13" d="M687.9,612.2v5.3c0,1.5-0.3,2.9-0.8,4.3c-0.2,0.6-0.5,1.2-0.9,1.8c-2.1,3.6-6,5.8-10.1,5.8H284.2
		c-4.2,0-8-2.2-10.1-5.8c-0.3-0.6-0.6-1.1-0.9-1.8c-0.5-1.4-0.8-2.8-0.8-4.3v-5.3c0-6.5,5.3-11.8,11.8-11.8l0,0h22.6v-2.5
		c0-0.3,0.2-0.5,0.5-0.5l0,0h11.8c0.3,0,0.5,0.2,0.5,0.5l0,0v2.5h7.4v-2.5c0-0.3,0.2-0.5,0.5-0.5l0,0h11.8c0.3,0,0.5,0.2,0.5,0.5
		l0,0v2.5h7.4v-2.5c0-0.3,0.2-0.5,0.5-0.5l0,0h11.8c0.3,0,0.5,0.2,0.5,0.5l0,0v2.5h7.4v-2.5c0-0.3,0.2-0.5,0.5-0.5l0,0h11.8
		c0.3,0,0.5,0.2,0.5,0.5l0,0v2.5h7.4v-2.5c0-0.3,0.2-0.5,0.5-0.5l0,0h11.8c0.3,0,0.5,0.2,0.5,0.5l0,0v2.5h7.4v-2.5
		c0-0.3,0.2-0.5,0.5-0.5l0,0h11.8c0.3,0,0.5,0.2,0.5,0.5l0,0v2.5h7.4v-2.5c0-0.3,0.2-0.5,0.5-0.5l0,0h92.3c0.3,0,0.5,0.2,0.5,0.5
		l0,0v2.5h7.4v-2.5c0-0.3,0.2-0.5,0.5-0.5l0,0H541c0.3,0,0.5,0.2,0.5,0.5v2.5h7.4v-2.5c0-0.3,0.2-0.5,0.5-0.5l0,0h11.8
		c0.3,0,0.5,0.2,0.5,0.5l0,0v2.5h7.4v-2.5c0-0.3,0.2-0.5,0.5-0.5l0,0h11.8c0.3,0,0.5,0.2,0.5,0.5l0,0v2.5h7.4v-2.5
		c0-0.3,0.2-0.5,0.5-0.5l0,0H601c0.3,0,0.5,0.2,0.5,0.5v2.5h7.4v-2.5c0-0.3,0.2-0.5,0.5-0.5l0,0h11.8c0.3,0,0.5,0.2,0.5,0.5l0,0v2.5
		h7.4v-2.5c0-0.3,0.2-0.5,0.5-0.5l0,0h11.8c0.3,0,0.5,0.2,0.5,0.5l0,0v2.5h34.4C682.6,600.4,687.9,605.7,687.9,612.2L687.9,612.2z"
		/>
	<path class="st13" d="M656.3,387.9h-146v-3H444v3H297.4c-5.5,0-9.9,4.4-9.9,9.9l0,0v200c0,5.5,4.4,9.9,9.9,9.9h358.9
		c5.5,0,9.9-4.4,9.9-9.9v-200C666.2,392.3,661.8,387.9,656.3,387.9z"/>
	<circle class="st14" cx="475.2" cy="496.2" r="17"/>
</g>
</svg>
