<svg id="ae37f038-3a9e-4b82-ad68-fc94ba16af2a" xmlns="http://www.w3.org/2000/svg" viewBox="0 0 566.93 566.93"><defs><style>.cls-1{fill:#4486fc;}.cls-2{fill:#fff;}.cls-3{opacity:0.1;isolation:isolate;}</style></defs><title>icon-fly</title><ellipse class="cls-1" cx="285.33" cy="283.72" rx="247.92" ry="247.93"/><path class="cls-2" d="M285.33,165.08l-98.83,228,9.22,9.23,89.64-39.54L375,402.35l9.23-9.23Z"/><path class="cls-3" d="M285.33,35.71c-137-.07-248.07,110.92-248.14,247.91S148.11,531.7,285.09,531.77s248.07-110.92,248.14-247.9v-.13C533.23,146.81,422.26,35.78,285.33,35.71Zm0,462.88c-118.71,0-214.95-96.25-214.95-215s96.24-215,215-215,215,96.24,215,215v.12c0,118.72-96.25,215-215,215Z"/></svg>