<svg id="ae37f038-3a9e-4b82-ad68-fc94ba16af2a" xmlns="http://www.w3.org/2000/svg" viewBox="0 0 566.93 566.93"><defs><style>.cls-1{fill:#152a38;}.cls-2{fill:#fff;}.cls-3{opacity:0.1;isolation:isolate;}</style></defs><title>icon-fly</title><circle class="cls-1" cx="284.58" cy="284.13" r="247.92"/><path class="cls-2" d="M391,348.07c-8.63-8.63-29.39-21.65-39.68-26.51-11.88-5.71-16.25-5.61-24.65.47-7,5-11.54,9.74-19.57,8s-24-13.76-39.36-29.11-27.36-31.18-29.07-39.34,3-12.6,8-19.59c6-8.41,6.22-12.78.47-24.66-5-10.29-17.83-31-26.54-39.68s-10.59-6.77-15.35-5a87.88,87.88,0,0,0-14.06,7.44c-8.63,5.78-13.47,10.59-16.87,17.83s-7.24,20.69,12.53,55.88a311.56,311.56,0,0,0,54.81,73.09h0A311.82,311.82,0,0,0,315,381.82c35.17,19.85,48.63,15.9,55.88,12.53s12.05-8.16,17.8-16.87a87.13,87.13,0,0,0,7.45-14.06C397.77,358.66,399.71,356.72,391,348.07Z"/><path class="cls-3" d="M284.58,36.23c-137-.06-248.08,110.92-248.15,247.9S147.35,532.2,284.33,532.27,532.4,421.35,532.47,284.38v-.25C532.4,147.25,421.46,36.3,284.58,36.23Zm0,462.86c-118.72,0-215-96.24-215-215s96.24-215,215-215,215,96.24,215,215h0c0,118.72-96.24,215-214.95,215Z"/></svg>