<svg id="ae37f038-3a9e-4b82-ad68-fc94ba16af2a" xmlns="http://www.w3.org/2000/svg" viewBox="0 0 566.93 566.93"><defs><style>.cls-1{fill:#dd9ba1;}.cls-2{fill:#fff;}.cls-3{opacity:0.1;isolation:isolate;}</style></defs><title>icon-fly</title><ellipse class="cls-1" cx="286.1" cy="283.24" rx="246.37" ry="247.92"/><path class="cls-2" d="M426.25,208.34l-73.77,75.52a1.34,1.34,0,0,0,0,1.89l0,.05,51.76,55.38a9,9,0,0,1-.05,12.7,8.82,8.82,0,0,1-12.54,0l-51.49-55.18a1.4,1.4,0,0,0-2,0l-12.55,12.75a55,55,0,0,1-39.43,16.69,56.19,56.19,0,0,1-40.13-17.17L234,298.54a1.4,1.4,0,0,0-2,0L180.7,353.6a8.87,8.87,0,0,1-12.59,0v0a9,9,0,0,1,0-12.62l0-.05,51.56-55.26a1.47,1.47,0,0,0,0-1.93L145.9,208.22a1.35,1.35,0,0,0-1.92,0,1.37,1.37,0,0,0-.4,1V360.3a22.06,22.06,0,0,0,21.91,22.05H406.71a22.06,22.06,0,0,0,21.91-22.05v-151a1.35,1.35,0,0,0-2.37-1Z"/><path class="cls-2" d="M286,310.18A37.2,37.2,0,0,0,312.91,299L420.35,189a21.35,21.35,0,0,0-13.56-5H165.4a21.23,21.23,0,0,0-13.55,5L259.31,299A37.07,37.07,0,0,0,286,310.18Z"/><path class="cls-3" d="M286.22,35.35C150.1,35.28,39.7,146.26,39.63,283.24S149.86,531.32,286,531.38,532.5,420.47,532.57,283.49v-.25C532.5,146.36,422.25,35.41,286.22,35.35Zm0,462.85c-118,0-213.61-96.24-213.61-215s95.64-215,213.61-215,213.61,96.24,213.61,215h0C499.83,402,404.2,498.2,286.22,498.2Z"/></svg>