<?xml version="1.0" encoding="utf-8"?>
<!-- Generator: Adobe Illustrator 22.1.0, SVG Export Plug-In . SVG Version: 6.00 Build 0)  -->
<svg version="1.1" id="b34a7ed3-b085-4444-bb69-8e8541180262"
	 xmlns="http://www.w3.org/2000/svg" xmlns:xlink="http://www.w3.org/1999/xlink" x="0px" y="0px" viewBox="0 0 744.6 542.3"
	 style="enable-background:new 0 0 744.6 542.3;" xml:space="preserve">
<style type="text/css">
	.st0{fill:#A3E59E;}
	.st1{fill:#FFB8B8;}
	.st2{fill:#030928;}
	.st3{fill:#CACACC;}
	.st4{fill:#070707;}
	.st5{fill:none;stroke:#E6E6E6;stroke-width:2;stroke-miterlimit:10;}
	.st6{fill:#DBDBDD;}
</style>
<path class="st0" d="M708.3,453.1c-0.8,30.3-5.9,60.3-15.1,89.2c-0.2,0.7-0.4,1.3-0.7,2h-56.2c0.1-0.6,0.1-1.3,0.2-2
	c3.8-43.1,25.4-305.5-0.5-350.4C638.3,195.5,712.7,316.1,708.3,453.1z"/>
<path class="st0" d="M704.1,542.3c-0.5,0.7-1,1.3-1.5,2h-42.2c0.3-0.6,0.7-1.2,1.1-2c7-12.6,27.6-50.2,46.8-89.2
	c20.6-41.9,39.5-85.4,37.9-101.1C746.7,355.5,760.9,463.7,704.1,542.3z"/>
<path class="st0" d="M55.4,497.1c0.4,14.9,2.9,29.6,7.4,43.8c0.1,0.3,0.2,0.7,0.3,1h27.6c0-0.3-0.1-0.6-0.1-1
	c-1.8-21.2-12.5-150,0.2-172C89.7,370.6,53.2,429.8,55.4,497.1z"/>
<path class="st0" d="M57.4,540.8c0.2,0.3,0.5,0.7,0.7,1h20.7c-0.2-0.3-0.3-0.6-0.5-1c-3.4-6.2-13.6-24.6-23-43.8
	c-10.1-20.6-19.4-41.9-18.6-49.7C36.5,449.1,29.5,502.3,57.4,540.8z"/>
<path class="st1" d="M127.3,282.8l3.2,25.3c0.9,7.3,7.6,12.5,14.9,11.5c1.3-0.2,2.6-0.5,3.7-1l0,0c6.7-3,9.7-10.8,6.7-17.6
	c-0.2-0.3-0.3-0.7-0.5-1L142,275.7l-4.4-104.5l-28.3,6.6L127.3,282.8z"/>
<polygon class="st2" points="233.2,517.3 211.2,519.3 198.2,338.3 197.7,384.8 149.7,512.8 130.7,497.8 162.2,370.3 147.2,299.3 
	245.2,299.3 "/>
<path class="st3" d="M255,541.8l-40.9-1c-6.1,0.4-11.4-4.1-11.9-10.2c-0.1-0.9,0-1.7,0.1-2.6l1.7-10.5c0.7-4.1,4.1-7.3,8.3-7.6l0,0
	c7,7.2,14.2,6.2,21.6-1.5l16.9,17.1l2.5-0.3c4.1-0.6,8,2,9.2,6l0,0c1.3,4.4-1.3,9.1-5.7,10.4C256.2,541.6,255.6,541.7,255,541.8z"/>
<path class="st3" d="M161.9,540.4l-41-15.5c-6.1-2.3-9.2-9.1-6.9-15.3c0.3-0.9,0.7-1.7,1.3-2.4l6.4-9.5c2.5-3.7,7.2-5.2,11.4-3.6
	l0,0c3.5,10.1,11,12.4,21.7,8.2l10.5,20.3l2.6,0.8c4.2,1.3,6.9,5.5,6.2,9.9l0,0c-0.7,4.9-5.3,8.3-10.2,7.5
	C163,540.8,162.4,540.7,161.9,540.4z"/>
<circle class="st1" cx="198.2" cy="47.3" r="26"/>
<path class="st1" d="M201.2,95.3l-45-1c12.4-13.7,19.9-28,21-43h24V95.3z"/>
<path class="st4" d="M248.2,313.3c-42.5-10.9-82.3-18.2-107-5c4.3-45.4-0.7-103.4-15.5-164c-4.8-19.7-1.5-37.4,16-47.5l23.5-13.5
	l36,1L220,94.7c18.9,9.4,29.2,30.2,25.3,51C235.1,198.8,240.6,256.1,248.2,313.3z"/>
<path class="st1" d="M257.2,281.3l3.5,25.3c1,7.3-4.1,14-11.3,15c-1.3,0.2-2.6,0.2-3.9,0l0,0c-7.3-1.1-12.2-7.9-11.1-15.2
	c0.1-0.4,0.1-0.7,0.2-1.1l6.6-26.9l-23-102l29-1L257.2,281.3z"/>
<path class="st4" d="M151.2,186.3l-47-3c3.7-46.2,14.1-71.5,30-80l17,20V186.3z"/>
<path class="st4" d="M216.2,38.3c-9.2-2.9-13.9,15.9-27.5,27.5c-3.1,2.6-10.8-7.7-13.5-4.5L170.8,48c-5.2-15.8,4.2-33,20.4-36.5
	c0.4-0.1,0.9-0.2,1.3-0.2l0,0c14.7-2.4,28.9,6.6,32.9,20.9c0.5,2.1-0.7,4.2-2.8,4.7c-0.1,0-0.1,0-0.2,0L216.2,38.3z"/>
<polygon class="st4" points="257.2,177.3 213.2,187.3 211.2,115.3 236.2,116.3 "/>
<path class="st5" d="M605,175.7H316.7c-2.9,0-5.3-2.4-5.3-5.3V43.9c0-2.9,2.4-5.3,5.3-5.3H605c2.9,0,5.3,2.4,5.3,5.3v126.5
	C610.3,173.4,607.9,175.7,605,175.7z"/>
<path class="st6" d="M375.4,75.7c-2,0-3.6,1.6-3.6,3.6c0,2,1.6,3.6,3.6,3.6c0,0,0,0,0,0h170.9c2,0,3.6-1.6,3.6-3.6
	c0-2-1.6-3.6-3.6-3.6l0,0H375.4z"/>
<path class="st6" d="M375.4,103.7c-2,0-3.6,1.6-3.6,3.6c0,2,1.6,3.6,3.6,3.6c0,0,0,0,0,0h170.9c2,0,3.6-1.6,3.6-3.6
	c0-2-1.6-3.6-3.6-3.6l0,0H375.4z"/>
<path class="st6" d="M375.4,124.4c-2,0-3.6,1.6-3.6,3.6c0,2,1.6,3.6,3.6,3.6h73.5c2,0,3.6-1.6,3.6-3.6c0-2-1.6-3.6-3.6-3.6H375.4z"
	/>
<path class="st5" d="M605,334.5H316.7c-2.9,0-5.3-2.4-5.3-5.3V202.6c0-2.9,2.4-5.3,5.3-5.3H605c2.9,0,5.3,2.4,5.3,5.3v126.5
	C610.3,332.1,607.9,334.5,605,334.5z"/>
<path class="st6" d="M375.4,234.4c-2,0-3.6,1.6-3.6,3.6c0,2,1.6,3.6,3.6,3.6c0,0,0,0,0,0h170.9c2,0,3.6-1.6,3.6-3.6
	c0-2-1.6-3.6-3.6-3.6l0,0H375.4z"/>
<path class="st6" d="M375.4,262.4c-2,0-3.6,1.6-3.6,3.6c0,2,1.6,3.6,3.6,3.6c0,0,0,0,0,0h170.9c2,0,3.6-1.6,3.6-3.6
	c0-2-1.6-3.6-3.6-3.6l0,0H375.4z"/>
<path class="st6" d="M375.4,283.1c-2,0-3.6,1.6-3.6,3.6c0,2,1.6,3.6,3.6,3.6h73.5c2,0,3.6-1.6,3.6-3.6c0-2-1.6-3.6-3.6-3.6H375.4z"
	/>
<path class="st5" d="M605,493.2H316.7c-2.9,0-5.3-2.4-5.3-5.3V361.4c0-2.9,2.4-5.3,5.3-5.3H605c2.9,0,5.3,2.4,5.3,5.3v126.5
	C610.3,490.8,607.9,493.2,605,493.2z"/>
<path class="st6" d="M375.4,393.1c-2,0-3.6,1.6-3.6,3.6c0,2,1.6,3.6,3.6,3.6c0,0,0,0,0,0h170.9c2,0,3.6-1.6,3.6-3.6
	c0-2-1.6-3.6-3.6-3.6l0,0H375.4z"/>
<path class="st6" d="M375.4,421.1c-2,0-3.6,1.6-3.6,3.6c0,2,1.6,3.6,3.6,3.6c0,0,0,0,0,0h170.9c2,0,3.6-1.6,3.6-3.6
	c0-2-1.6-3.6-3.6-3.6l0,0H375.4z"/>
<path class="st6" d="M375.4,441.9c-2,0-3.6,1.6-3.6,3.6c0,2,1.6,3.6,3.6,3.6h73.5c2,0,3.6-1.6,3.6-3.6c0-2-1.6-3.6-3.6-3.6H375.4z"
	/>
</svg>
