<?xml version="1.0" encoding="utf-8"?>
<!-- Generator: Adobe Illustrator 22.1.0, SVG Export Plug-In . SVG Version: 6.00 Build 0)  -->
<svg version="1.1" id="Layer_1" xmlns="http://www.w3.org/2000/svg" xmlns:xlink="http://www.w3.org/1999/xlink" x="0px" y="0px"
	 viewBox="0 0 512 512" style="enable-background:new 0 0 512 512;" xml:space="preserve">
<style type="text/css">
	.st0{fill:#0D6EFD;}
	.st1{fill:#C8C9CC;}
	.st2{fill:#3E6B82;}
	.st3{fill:#029BC5;}
	.st4{fill:#D5D6DB;}
	.st5{fill:#E1E6E9;}
	.st6{fill:#3A556A;}
	.st7{fill:#EBF0F3;}
</style>
<circle class="st0" cx="256" cy="256" r="218.5"/>
<g id="icon">
	<path class="st1" d="M277.9,154.5H332v88.9h-54.1V154.5z"/>
	<path class="st2" d="M286.3,163.2h37.2v4.2h-37.2V163.2z"/>
	<path class="st2" d="M286.3,175h37.2v4.2h-37.2V175z"/>
	<path class="st2" d="M286.3,186.8h37.2v4.2h-37.2V186.8z"/>
	<path class="st2" d="M286.3,198.7h37.2v4.2h-37.2V198.7z"/>
	<path class="st2" d="M286.3,210.5h37.2v4.2h-37.2V210.5z"/>
	<path class="st1" d="M175.3,136.4h64v166.1h-64V136.4z"/>
	<path class="st3" d="M184.6,146.3h8.3v8.3h-8.3V146.3z"/>
	<path class="st3" d="M184.6,163.2h8.3v8.3h-8.3V163.2z"/>
	<path class="st3" d="M184.6,180h8.3v8.3h-8.3V180z"/>
	<path class="st3" d="M184.6,196.9h8.3v8.3h-8.3V196.9z"/>
	<path class="st3" d="M184.6,213.7h8.3v8.3h-8.3V213.7z"/>
	<path class="st3" d="M184.6,230.6h8.3v8.3h-8.3V230.6z"/>
	<path class="st3" d="M203.1,146.3h8.3v8.3h-8.3V146.3z"/>
	<path class="st3" d="M203.1,163.2h8.3v8.3h-8.3V163.2z"/>
	<path class="st3" d="M203.1,180h8.3v8.3h-8.3V180z"/>
	<path class="st3" d="M203.1,196.9h8.3v8.3h-8.3V196.9z"/>
	<path class="st3" d="M203.1,213.7h8.3v8.3h-8.3V213.7z"/>
	<path class="st3" d="M203.1,230.6h8.3v8.3h-8.3V230.6z"/>
	<path class="st3" d="M221.7,146.3h8.3v8.3h-8.3V146.3z"/>
	<path class="st3" d="M221.7,163.2h8.3v8.3h-8.3V163.2z"/>
	<path class="st3" d="M221.7,180h8.3v8.3h-8.3V180z"/>
	<path class="st3" d="M221.7,196.9h8.3v8.3h-8.3V196.9z"/>
	<path class="st3" d="M221.7,213.7h8.3v8.3h-8.3V213.7z"/>
	<path class="st3" d="M221.7,230.6h8.3v8.3h-8.3V230.6z"/>
	<path class="st4" d="M287.3,220h76.2v153.6h-82.3V220H287.3z"/>
	<path class="st4" d="M210.9,372.4h-71.2V265.6l71.2-40.2V372.4z"/>
	<path class="st4" d="M213.2,166.9h68.1v16.2h-68.1V166.9z"/>
	<path class="st5" d="M199.2,179.1h94.3v194.6h-94.3L199.2,179.1L199.2,179.1z"/>
	<g>
		<path class="st6" d="M211.5,192.6h14.2v18h-14.2V192.6z"/>
		<path class="st6" d="M239.3,192.6h14.2v18h-14.2V192.6z"/>
		<path class="st6" d="M266.9,192.6h14.2v18h-14.2V192.6z"/>
		<path class="st6" d="M211.5,220h14.2v18h-14.2V220z"/>
		<path class="st6" d="M239.3,220h14.2v18h-14.2V220z"/>
		<path class="st6" d="M266.9,220h14.2v18h-14.2V220z"/>
		<path class="st6" d="M211.5,247.5h14.2v18h-14.2V247.5z"/>
		<path class="st6" d="M239.3,247.5h14.2v18h-14.2V247.5z"/>
		<path class="st6" d="M266.9,247.5h14.2v18h-14.2V247.5z"/>
		<path class="st6" d="M211.5,275h14.2v18h-14.2V275z"/>
		<path class="st6" d="M239.3,275h14.2v18h-14.2V275z"/>
		<path class="st6" d="M266.9,275h14.2v18h-14.2V275z"/>
		<path class="st6" d="M211.5,302.5h14.2v18h-14.2V302.5z"/>
		<path class="st6" d="M239.3,302.5h14.2v18h-14.2V302.5z"/>
		<path class="st6" d="M266.9,302.5h14.2v18h-14.2V302.5z"/>
		<path class="st6" d="M230.1,334.6h32.6v39.1h-32.6L230.1,334.6z"/>
		<path class="st6" d="M149.2,273.6h38.6v6.9h-38.6V273.6z"/>
		<path class="st6" d="M149.2,293.4h38.6v6.9h-38.6V293.4z"/>
		<path class="st6" d="M149.2,313.3h38.6v6.9h-38.6V313.3z"/>
		<path class="st6" d="M149.2,333.1h38.6v6.9h-38.6V333.1z"/>
		<path class="st6" d="M149.2,353h38.6v6.9h-38.6V353z"/>
	</g>
	<path class="st7" d="M304.9,235.3h17.4v22.3h-17.4V235.3z"/>
	<path class="st3" d="M320.4,237.3v18.4h-13.5v-18.4H320.4z"/>
	<path class="st7" d="M334.1,235.3h17.4v22.3h-17.4V235.3z"/>
	<path class="st3" d="M349.6,237.3v18.4H336v-18.4H349.6z"/>
	<path class="st7" d="M304.9,269h17.4v22.3h-17.4V269z"/>
	<path class="st3" d="M320.4,270.9v18.4h-13.5v-18.4H320.4z"/>
	<path class="st7" d="M334.1,269h17.4v22.3h-17.4V269z"/>
	<path class="st3" d="M349.6,270.9v18.4H336v-18.4H349.6z"/>
	<path class="st7" d="M304.9,302.6h17.4v22.3h-17.4V302.6z"/>
	<path class="st3" d="M320.4,304.6V323h-13.5v-18.4H320.4z"/>
	<path class="st7" d="M334.1,302.6h17.4v22.3h-17.4V302.6z"/>
	<path class="st3" d="M349.6,304.6V323H336v-18.4H349.6z"/>
	<path class="st7" d="M304.9,336.3h17.4v22.3h-17.4V336.3z"/>
	<path class="st3" d="M320.4,338.3v18.4h-13.5v-18.4H320.4z"/>
	<path class="st7" d="M334.1,336.3h17.4v22.3h-17.4V336.3z"/>
	<path class="st3" d="M349.6,338.3v18.4H336v-18.4H349.6z"/>
</g>
</svg>
