<?xml version="1.0" encoding="utf-8"?>
<!-- Generator: Adobe Illustrator 22.1.0, SVG Export Plug-In . SVG Version: 6.00 Build 0)  -->
<svg version="1.1" id="Layer_1" xmlns="http://www.w3.org/2000/svg" xmlns:xlink="http://www.w3.org/1999/xlink" x="0px" y="0px"
	 viewBox="0 0 512 512" style="enable-background:new 0 0 512 512;" xml:space="preserve">
<style type="text/css">
	.st0{fill:#0D6EFD;}
	.st1{fill:#34BF94;}
	.st2{fill:#EBF0F3;}
	.st3{fill:#44C4A1;}
	.st4{fill:#F7C657;}
	.st5{fill:#EAAB50;}
	.st6{fill:#FFFFFF;}
</style>
<circle class="st0" cx="256" cy="256" r="218.5"/>
<path class="st1" d="M137.8,166.1h242c3.8,0,6.9,3.1,6.9,6.9v124.7c0,3.8-3.1,6.9-6.9,6.9h-242c-3.8,0-6.9-3.1-6.9-6.9V173
	C131,169.2,134,166.1,137.8,166.1z"/>
<path class="st2" d="M141,274.4v-78.2c11.1,0,20.1-9,20.1-20.1l0,0h195.6c0,11.1,9,20.1,20.1,20.1v78.2c-11.1,0-20.1,9-20.1,20.1
	H161.1C161.1,283.4,152.1,274.4,141,274.4z"/>
<g>
	<path class="st3" d="M258.8,196.5c-14.4,0-26,17.3-26,38.7s11.6,38.9,26,38.9c14.4,0,26-17.4,26-38.8
		C284.9,213.9,273.2,196.5,258.8,196.5L258.8,196.5z"/>
	<path class="st3" d="M327.9,219.5c-8.7,0-15.8,7.1-15.8,15.8c0,8.7,7.1,15.8,15.8,15.8c8.7,0,15.8-7.1,15.8-15.8c0,0,0,0,0,0
		C343.7,226.6,336.6,219.5,327.9,219.5C327.9,219.5,327.9,219.5,327.9,219.5L327.9,219.5z"/>
	<path class="st3" d="M189.8,219.5c-8.7,0-15.9,7.1-15.9,15.8c0,8.7,7.1,15.9,15.8,15.9s15.9-7.1,15.9-15.8c0,0,0,0,0-0.1
		C205.6,226.6,198.6,219.5,189.8,219.5L189.8,219.5L189.8,219.5z"/>
</g>
<path class="st2" d="M273.7,238.6c-1.4-1.9-3.2-3.4-5.4-4.3c-2.1-0.9-4.3-1.5-6.6-2v-13.3c1.5,0.2,3,0.8,4.3,1.7
	c1.8,1.5,2.9,3.7,3,6l5.3-0.4c0-2.3-0.7-4.6-2-6.6c-1.3-2-3.2-3.5-5.4-4.4c-1.6-0.6-3.2-1.1-4.9-1.3v-6h-5.9v6
	c-1.7,0.1-3.4,0.5-5.1,1.2c-2.1,0.8-4,2.2-5.3,4.1c-1.2,1.7-1.8,3.8-1.8,5.9c0,1.8,0.5,3.6,1.4,5.2c1.1,1.7,2.6,3,4.4,3.9
	c2,0.9,4,1.7,6.2,2.2v15c-0.9-0.2-1.7-0.5-2.6-0.8c-1.7-0.7-3.2-1.9-4.2-3.4c-1-1.5-1.6-3.3-1.7-5.1l-5.2,0.4c0,2.7,0.8,5.3,2.3,7.5
	c1.4,2.2,3.5,4,6,5c1.7,0.7,3.5,1.2,5.4,1.4v6h5.8v-5.8c2.2-0.1,4.3-0.6,6.3-1.4c2.2-1,4.2-2.5,5.5-4.6c1.3-1.8,1.9-4,1.9-6.2
	C275.6,242.4,275,240.3,273.7,238.6L273.7,238.6z M250.9,228.6c-1-0.9-1.6-2.3-1.6-3.7c0-1.8,0.9-3.5,2.3-4.5
	c1.3-0.9,2.9-1.5,4.5-1.6v11.9C254.2,230.3,252.4,229.6,250.9,228.6z M269.1,248.5c-0.9,1.2-2.2,2.1-3.6,2.6
	c-1.1,0.4-2.2,0.6-3.4,0.8v-13.9c1.6,0.4,2.8,0.8,3.4,1.1c1.4,0.5,2.7,1.3,3.7,2.5c0.8,1,1.2,2.2,1.1,3.4
	C270.3,246.2,269.9,247.5,269.1,248.5L269.1,248.5z"/>
<circle class="st4" cx="318.8" cy="313.2" r="43.3"/>
<path class="st5" d="M318.8,279.1c-18.9,0-34.1,15.3-34.1,34.1c0,18.9,15.3,34.1,34.1,34.1s34.1-15.3,34.1-34.1
	C352.9,294.4,337.6,279.1,318.8,279.1z"/>
<path class="st4" d="M332.2,316.1c-1.2-1.7-2.9-3-4.8-3.9c-1.9-0.8-3.9-1.4-5.9-1.8v-12c1.4,0.2,2.7,0.8,3.9,1.6
	c1.5,1.4,2.5,3.3,2.6,5.4l4.8-0.3c0-2.1-0.7-4.2-1.8-5.9c-1.2-1.8-2.9-3.2-4.9-4c-1.4-0.6-2.9-1-4.4-1.1v-5.4h-5.2v5.4
	c-1.6,0.1-3.1,0.5-4.6,1.1c-2,0.7-3.6,2.1-4.8,3.8c-1.1,1.6-1.6,3.4-1.6,5.3c0,1.6,0.5,3.2,1.3,4.5c1,1.5,2.4,2.6,4,3.4
	c1.8,0.8,3.6,1.5,5.6,1.9v13.7c-0.8-0.2-1.6-0.4-2.3-0.8c-1.5-0.6-2.8-1.6-3.8-2.9c-0.9-1.4-1.5-3-1.6-4.7l-4.7,0.4
	c0,2.4,0.7,4.8,2,6.8c1.3,2,3.2,3.6,5.4,4.5c1.5,0.6,3.2,1.1,4.8,1.3v5.4h5.3v-5.3c2-0.1,4-0.5,5.8-1.3c2-0.9,3.7-2.3,4.9-4.1
	c1.1-1.7,1.7-3.6,1.7-5.7C333.8,319.6,333.3,317.7,332.2,316.1L332.2,316.1z M311.7,307.1c-1-0.9-1.5-2.1-1.4-3.4
	c0-1.6,0.8-3.1,2.1-4c1.2-0.8,2.6-1.3,4-1.4v10.9c-1.7-0.3-3.4-1-4.8-2L311.7,307.1z M328,325.1c-0.8,1.1-2,1.8-3.2,2.3
	c-1.1,0.4-2.2,0.6-3.4,0.7v-12.5c1.4,0.4,2.5,0.7,3.1,1c1.3,0.4,2.5,1.2,3.4,2.3c0.7,0.9,1,2,1,3.1c0,1.2-0.3,2.3-1,3.2L328,325.1z"
	/>
<path class="st6" d="M320.3,262.7c-9,9-6.5,10.2,18.8,10.2c-25.4,0-27.8,1.3-18.8,10.2c-9-9-10.2-6.5-10.2,18.9
	c0-25.4-1.4-27.9-10.2-18.9c8.9-9,6.5-10.2-18.9-10.2c25.4,0,27.8-1.3,18.9-10.2c8.9,9,10.2,6.5,10.2-18.9
	C310,269.2,311.4,271.6,320.3,262.7z"/>
</svg>
