<?xml version="1.0" encoding="utf-8"?>
<!-- Generator: Adobe Illustrator 22.1.0, SVG Export Plug-In . SVG Version: 6.00 Build 0)  -->
<svg version="1.1" id="Layer_1" xmlns="http://www.w3.org/2000/svg" xmlns:xlink="http://www.w3.org/1999/xlink" x="0px" y="0px"
	 viewBox="0 0 512 512" style="enable-background:new 0 0 512 512;" xml:space="preserve">
<style type="text/css">
	.st0{fill:#0D6EFD;}
	.st1{fill:#D5D6DB;}
	.st2{fill:#103A56;}
	.st3{fill:#F4CE6E;}
	.st4{fill:#EBF0F3;}
</style>
<circle class="st0" cx="256" cy="256" r="218.5"/>
<path class="st1" d="M250.7,248.3l-59.5-102.4h119L250.7,248.3z M202.2,152.2l48.5,83.4l48.5-83.4H202.2z"/>
<path class="st2" d="M199.4,110.5c-22.3,0-40.3,18.1-40.3,40.3s18.1,40.3,40.3,40.3s40.3-18.1,40.3-40.3l0,0
	C239.8,128.6,221.6,110.5,199.4,110.5z"/>
<path class="st2" d="M299.6,110.5c-22.3,0-40.4,18-40.4,40.3s18,40.4,40.3,40.4c22.3,0,40.4-18,40.4-40.3l0,0
	C339.9,128.6,321.9,110.6,299.6,110.5z"/>
<path class="st2" d="M249.5,194.1c-22.3,0-40.4,18-40.4,40.3s18,40.4,40.3,40.4s40.4-18,40.4-40.3c0,0,0,0,0-0.1
	C289.8,212.1,271.8,194.1,249.5,194.1L249.5,194.1z"/>
<path class="st3" d="M298.5,302.8c-4.5,0-8.1,3.6-8.2,8.1v-3.3c-0.3-4.5-4.2-7.9-8.7-7.6c-4.1,0.3-7.3,3.5-7.6,7.6v-3.3
	c0.3-4.5-3.1-8.4-7.6-8.7c-4.5-0.3-8.4,3.1-8.7,7.6c0,0.4,0,0.7,0,1.1v-39.7c0-4.5-3.6-8.2-8.2-8.2c-4.5,0-8.2,3.6-8.2,8.2v82.7
	l-7.8-9.9l0.9-9c0.7-5.9-1.2-12-5.1-16.6c-1.1-1.2-2.8-1.3-4-0.3c-0.5,0.4-0.8,1-0.9,1.7l-5.5,25.4c-0.5,2.3,0.1,4.8,1.5,6.6
	l21,27.9l9.9,24.3l45.6-1.9l9.4-30.3v-54.2C306.7,306.4,303.1,302.8,298.5,302.8L298.5,302.8L298.5,302.8z"/>
<path class="st2" d="M245.4,385.1h55.7V420h-55.7V385.1z"/>
<g>
	<path class="st4" d="M319,159.2c-0.2-2-1.5-3.9-3.3-4.9l-6.3-3.3c1.6-0.6,2.9-1.5,4.1-2.6c1.2-1.3,1.7-3,1.3-4.7
		c-0.6,0.7-1.5,1-2.3,0.6c-0.8-0.4-1.4-1-1.7-1.9c-0.3-0.8-0.5-1.7-0.4-2.5c0-1.4,0-2.7,0-4.1c0.2-0.9,0.4-1.9,0.4-2.7
		c0-6.4-5.2-11.6-11.6-11.6s-11.6,5.2-11.6,11.6c0,1,0.1,1.9,0.4,2.9c0.1,1.3,0.1,2.5,0,3.9c0,0.9-0.1,1.8-0.4,2.5
		c-0.3,0.8-0.9,1.5-1.7,1.9c-0.8,0.3-1.8,0.1-2.3-0.6c-0.4,1.7,0.1,3.4,1.3,4.7c1.2,1.2,2.5,2,4.1,2.6l-6.3,3.3
		c-1.9,1-3.1,2.7-3.3,4.9l-1.1,11.1h42L319,159.2z"/>
	<path class="st4" d="M217.8,157.1c-1.9-3.6-7.8-5.2-10.8-5.7l-1.1-0.2h-0.7h-0.8l-0.8-4.1c1.7-1.6,2.8-3.6,3.3-5.8
		c0.6,0,1.4-0.9,1.6-2.1c0.2-1.3,0-2.3-0.7-2.5c0.5-3.3,1.4-7.9,0-9.2c-1.3-1-2.7-1.6-4.4-1.7c-1.3-3.6-9.2-1.3-11.5,0.9
		c-2.3,2.1-1.5,6.4-1.1,9.6c-0.5,0.3-0.8,1.3-0.6,2.5c0.2,1.2,0.8,2,1.3,2.1c0.5,2.3,1.7,4.5,3.3,6l-0.8,4.1h-0.7H193h-0.7h-0.2
		c-2.9,0.5-9.1,2.1-10.9,5.7c-1.6,4.7-2.2,9.6-2.2,14.6h41.2C220.1,166.4,219.3,161.7,217.8,157.1L217.8,157.1z"/>
	<path class="st4" d="M259.4,213.7h-32.1v20.8h4v9.4l6.9-9.4h2.6v-10.7h18.6V213.7z"/>
	<path class="st4" d="M241.9,224.8v20.8h21.2l6.9,9.4v-9.4h4v-20.8H241.9z M269.2,241.2h-22.5v-1h22.5V241.2z M269.2,237.4h-22.5
		v-0.9h22.5V237.4z M269.2,233.6h-22.5v-1h22.5V233.6z M269.2,229.8h-22.5v-1.1h22.5V229.8z"/>
</g>
</svg>
