<?xml version="1.0" encoding="utf-8"?>
<!-- Generator: Adobe Illustrator 22.1.0, SVG Export Plug-In . SVG Version: 6.00 Build 0)  -->
<svg version="1.1" id="Layer_1" xmlns="http://www.w3.org/2000/svg" xmlns:xlink="http://www.w3.org/1999/xlink" x="0px" y="0px"
	 viewBox="0 0 512 512" style="enable-background:new 0 0 512 512;" xml:space="preserve">
<style type="text/css">
	.st0{fill:#0D6EFD;}
	.st1{fill:#A8D3F4;}
	.st2{fill:#475F6C;}
	.st3{fill:#092439;}
	.st4{fill:#F6B863;}
	.st5{fill:#EAA14E;}
</style>
<circle class="st0" cx="256" cy="256" r="218.5"/>
<g id="icon">
	<circle class="st1" cx="223.6" cy="215.4" r="77.3"/>
	<path class="st2" d="M281.5,291.7l1,1l18.4-18.4l-1-1L281.5,291.7z"/>
	<path class="st3" d="M167.7,151.7c-35.2,30.9-38.7,84.4-7.8,119.6c26.4,30,70,37.5,105,18.2c5.4-3.1,12.2-2.1,16.7,2.2l18.4-18.4
		l0,0c-4.4-4.5-5.3-11.3-2.2-16.7c22.7-40.9,8-92.5-33-115.2C233.5,123.9,194.6,128.1,167.7,151.7L167.7,151.7z M274.5,266.2
		c-28.1,28.1-73.7,28.1-101.7,0c-28.1-28.1-28.1-73.7,0-101.7c28.1-28.1,73.7-28.1,101.7,0C302.5,192.7,302.5,238.1,274.5,266.2
		L274.5,266.2z"/>
	<path class="st4" d="M364.7,322.1L305.5,271l-26.3,26.3l51.1,59.2c8.8,10.2,24.1,11.4,34.4,2.5c0.5-0.4,0.9-0.8,1.3-1.2
		c9.5-9.5,9.5-25,0-34.5C365.6,323,365.2,322.6,364.7,322.1z"/>
	<path class="st5" d="M311.9,269.4c2,2,2.2,5,0.7,7.3c-0.2,0.3-0.4,0.6-0.7,0.7l-26.3,26.3c-0.2,0.3-0.5,0.5-0.7,0.7
		c-2.6,1.8-6.1,1-7.9-1.6c-1.5-2.2-1.2-5.1,0.7-7.1l26.3-26.3C306,267.2,309.7,267.2,311.9,269.4L311.9,269.4z"/>
</g>
</svg>
