<?xml version="1.0" encoding="utf-8"?>
<!-- Generator: Adobe Illustrator 22.1.0, SVG Export Plug-In . SVG Version: 6.00 Build 0)  -->
<svg version="1.1" id="Layer_1" xmlns="http://www.w3.org/2000/svg" xmlns:xlink="http://www.w3.org/1999/xlink" x="0px" y="0px"
	 viewBox="0 0 512 512" style="enable-background:new 0 0 512 512;" xml:space="preserve">
<style type="text/css">
	.st0{fill:#0D6EFD;}
	.st1{fill:#F7BE56;}
	.st2{fill:#FCD462;}
	.st3{fill:#2F4859;}
	.st4{fill:#3A556A;}
	.st5{fill:#EBF0F3;}
	.st6{fill:#E1E6E9;}
	.st7{fill:#D5D6DB;}
	.st8{fill:#E5AA4A;}
	.st9{fill:#E56353;}
</style>
<circle class="st0" cx="256" cy="256" r="218.5"/>
<path class="st1" d="M351.8,392.4h-210l-2.5-76.7l0.2-0.6l214.3-0.4l0.4,1L351.8,392.4z"/>
<path class="st2" d="M354.2,315.7H139.3l27.4-76.7h160L354.2,315.7z"/>
<path class="st1" d="M152,306.8l21.1-58.9h147.5l21.1,58.9H152z"/>
<path class="st3" d="M283.9,341.5c-3,0-5.4,2.4-5.4,5.4c0,3,2.4,5.4,5.4,5.4s5.4-2.4,5.4-5.4l0,0
	C289.3,343.9,286.9,341.5,283.9,341.5z"/>
<circle class="st3" cx="209.5" cy="346.9" r="5.4"/>
<path class="st4" d="M280.1,367.1h-66.7c-3.8,0-6.8-3.1-6.8-6.8v-13c-0.2-1.6,1-3.1,2.6-3.3c1.6-0.2,3.1,1,3.3,2.6
	c0,0.2,0,0.4,0,0.6v13c0,0.5,0.4,0.9,0.9,0.9h66.7c0.5,0,0.9-0.4,0.9-0.9v-13c0-1.6,1.3-3,3-3c1.6,0,3,1.3,3,3v13
	C286.9,364.1,283.9,367.1,280.1,367.1z"/>
<path class="st5" d="M274.7,200.9h-82.2v105.9h108.6v-79.5L274.7,200.9z"/>
<g>
	<path class="st6" d="M207,237.2h79.6v3.6H207V237.2z"/>
	<path class="st6" d="M207,251.9h79.6v3.6H207V251.9z"/>
	<path class="st6" d="M207,266.6h79.6v3.6H207V266.6z"/>
	<path class="st6" d="M207,281.4h79.6v3.6H207V281.4z"/>
</g>
<path class="st7" d="M274.7,227.3h26.4l-26.4-26.4V227.3z"/>
<path class="st8" d="M320.5,247.9v58.9h21.1L320.5,247.9z"/>
<path class="st8" d="M173,247.9v58.9H152L173,247.9z"/>
<path class="st2" d="M245.1,189.3l20-40.4l54.1-11.9l18.8,44.4l-45.8,33.1c-6.8-5.8-7.6-16-1.8-22.8c0.3-0.4,0.7-0.7,1-1.1l12.4-12
	l-9.2-17.4L276,166l-6.8,15.1c-3.8,8.2-13.3,12.2-21.8,9L245.1,189.3z"/>
<path class="st9" d="M313.7,132.4l25.4,58.5l33.6-14.1l-25.3-57.2L313.7,132.4z"/>
</svg>
