<?xml version="1.0" encoding="utf-8"?>
<!-- Generator: Adobe Illustrator 22.1.0, SVG Export Plug-In . SVG Version: 6.00 Build 0)  -->
<svg version="1.1" id="Layer_1" xmlns="http://www.w3.org/2000/svg" xmlns:xlink="http://www.w3.org/1999/xlink" x="0px" y="0px"
	 viewBox="0 0 512 512" style="enable-background:new 0 0 512 512;" xml:space="preserve">
<style type="text/css">
	.st0{fill:#0D6EFD;}
	.st1{display:none;fill:#D6D6D6;}
	.st2{fill:#FFFFFF;}
</style>
<circle class="st0" cx="256" cy="256" r="218.5"/>
<g>
	<path class="st1" d="M281.3,223.7c0-14-11.3-25.3-25.3-25.3c-14,0-25.3,11.3-25.3,25.3c0,9.5,5.2,17.8,13,22.1l0.5-16.8
		c0-6.9,5.6-12.5,12.5-12.5h0.7c5.4,0,9.8,4.4,9.8,9.8v20.1C275.5,242.3,281.3,233.7,281.3,223.7z"/>
	<path class="st2" d="M267.1,226.4c0-5.4-4.4-9.8-9.8-9.8h-0.7c-6.9,0-12.5,5.6-12.5,12.5l-0.5,16.8l-1.2,37
		c-0.3,1.1-0.4,26.9-0.4,26.9c-2.2-2.2-4.6-4.8-6.8-7.2c-5.1-5.7-14.4-9.5-20.6-10.2c-3.3-0.4-5.8,0.1-7.4,1.3
		c-0.5,0.4-1.1,0.9-1.5,1.3c-3.2,3.2-5.6,8.2-3.4,12c1,1.6,2.6,2.7,4.4,3.8c2.3,1.5,6.3,3.2,9.2,6.9c5,6.3,16.4,20.5,23.5,28.1
		c1.5,0.9,4.6,4,6,4.8c4.5,2.8,8.1,5.5,9.4,7c1,1.1,6.8,4.1,6.8,4.1c4.7,3,13.3,5.8,23.2,5.8c9.9,0,18.9,0.6,25.5-5.2h0.4l0.2-0.4
		c6.8-6.2,11-14.8,11-24.2c0-2.3,0-11,0-12.6v-32.7c0-2.2-0.5-9.7-6.7-11.9c-3-1.1-5.9-0.7-8.3,0.4l-0.6,0l-0.2,0
		c-1.1-4.1-3.8-6.7-7.8-7.4c-4.9-0.8-8.2,0.6-10.2,2.1c-2-4.3-6-6.6-11.5-6.1c-4.1,0.3-7.1,2.4-9.4,5v-27.9V226.4z"/>
	<path class="st2" d="M312.5,265.8l5,5.6c1,1.1,2.7,1,3.6-0.2c9.7-13.4,15-29.6,15-46.7c0-44.2-36-80.1-80.1-80.1
		c-3,0-6.1,0.2-9.1,0.5c-36.9,4.1-66.5,33.9-70.5,70.8c-2.2,20.1,3.1,39.7,14.5,55.5c0.8,1.2,2.6,1.2,3.6,0.2l5-5.6
		c0.7-0.8,0.8-2,0.2-2.8c-8-11.8-12.3-25.8-11.8-40.4c1-35.4,29.5-64.5,64.9-66.1c39.1-1.9,71.5,29.4,71.5,68.1
		c0,13.8-4.2,27.2-11.9,38.4C311.7,263.8,311.8,265,312.5,265.8z"/>
	<path class="st2" d="M290,240.7l5.3,5.9c1.1,1.2,3.1,0.9,3.8-0.5c3.4-6.6,5.1-13.9,5.1-21.6c0-22.7-16.1-42.5-38.3-47.2
		c-6.5-1.4-13.3-1.4-19.8,0c-22.2,4.7-38.3,24.5-38.3,47.2c0,7.6,1.8,14.9,5.1,21.6c0.7,1.5,2.7,1.7,3.8,0.5l5.3-5.9
		c0.6-0.7,0.7-1.6,0.4-2.4c-1.8-4.3-2.7-9-2.7-13.7c0-15.2,9.6-28.9,23.9-34.1c8-2.9,16.9-2.9,24.9,0c14.3,5.2,23.9,18.9,23.9,34.1
		c0,4.7-0.9,9.4-2.7,13.7C289.3,239.1,289.4,240.1,290,240.7z"/>
</g>
</svg>
