<?xml version="1.0" encoding="utf-8"?>
<!-- Generator: Adobe Illustrator 22.1.0, SVG Export Plug-In . SVG Version: 6.00 Build 0)  -->
<svg version="1.1" id="Layer_1" xmlns="http://www.w3.org/2000/svg" xmlns:xlink="http://www.w3.org/1999/xlink" x="0px" y="0px"
	 viewBox="0 0 512 512" style="enable-background:new 0 0 512 512;" xml:space="preserve">
<style type="text/css">
	.st0{fill:#0D6EFD;}
	.st1{fill:#D5D6DB;}
	.st2{fill:#103A56;}
	.st3{fill:#F4CE6E;}
	.st4{fill:#EBF0F3;}
</style>
<circle class="st0" cx="256" cy="256" r="218.5"/>
<path class="st1" d="M257.2,238.5l-61.1-105.1h122.2L257.2,238.5z M207.4,139.9l49.8,85.6l49.8-85.6H207.4z"/>
<path class="st2" d="M204.6,97.1c-22.9,0-41.4,18.6-41.4,41.4s18.6,41.4,41.4,41.4s41.4-18.6,41.4-41.4l0,0
	C246,115.7,227.4,97.1,204.6,97.1z"/>
<path class="st2" d="M307.4,97.1c-22.9,0-41.5,18.5-41.5,41.4c0,22.9,18.5,41.5,41.4,41.5s41.5-18.5,41.5-41.4c0,0,0,0,0,0
	C348.8,115.7,330.3,97.2,307.4,97.1z"/>
<path class="st2" d="M256,182.9c-22.9,0-41.5,18.5-41.5,41.4c0,22.9,18.5,41.5,41.4,41.5s41.5-18.5,41.5-41.4c0,0,0,0,0-0.1
	C297.4,201.4,278.9,182.9,256,182.9L256,182.9z"/>
<path class="st3" d="M306.3,294.5c-4.6,0-8.3,3.7-8.4,8.3v-3.4c-0.3-4.6-4.3-8.1-8.9-7.8c-4.2,0.3-7.5,3.6-7.8,7.8V296
	c0.3-4.6-3.2-8.6-7.8-8.9c-4.6-0.3-8.6,3.2-8.9,7.8c0,0.4,0,0.7,0,1.1v-40.8c0-4.6-3.7-8.4-8.4-8.4c-4.6,0-8.4,3.7-8.4,8.4v84.9
	l-8-10.2l0.9-9.2c0.7-6.1-1.2-12.3-5.2-17c-1.1-1.2-2.9-1.3-4.1-0.3c-0.5,0.4-0.8,1-0.9,1.7l-5.6,26.1c-0.5,2.4,0.1,4.9,1.5,6.8
	l21.6,28.6l10.2,24.9l46.8-2l9.7-31.1v-55.6C314.7,298.2,311,294.5,306.3,294.5C306.3,294.5,306.3,294.5,306.3,294.5L306.3,294.5z"
	/>
<path class="st2" d="M251.8,379H309v35.8h-57.2L251.8,379z"/>
<g>
	<path class="st4" d="M327.3,147.1c-0.2-2.1-1.5-4-3.4-5l-6.5-3.4c1.6-0.6,3-1.5,4.2-2.7c1.2-1.3,1.7-3.1,1.3-4.8
		c-0.6,0.7-1.5,1-2.4,0.6c-0.8-0.4-1.4-1-1.7-1.9c-0.3-0.8-0.5-1.7-0.4-2.6c0-1.4,0-2.8,0-4.2c0.2-0.9,0.4-1.9,0.4-2.8
		c0-6.6-5.3-11.9-11.9-11.9c-6.6,0-11.9,5.3-11.9,11.9c0,1,0.1,2,0.4,3c0.1,1.3,0.1,2.6,0,4c0,0.9-0.1,1.8-0.4,2.6
		c-0.3,0.8-0.9,1.5-1.7,1.9c-0.8,0.3-1.8,0.1-2.4-0.6c-0.4,1.7,0.1,3.5,1.3,4.8c1.2,1.2,2.6,2.1,4.2,2.7l-6.5,3.4
		c-1.9,1-3.2,2.8-3.4,5l-1.1,11.4h43.1L327.3,147.1z"/>
	<path class="st4" d="M223.5,144.9c-1.9-3.7-8-5.3-11.1-5.8l-1.1-0.2h-0.7h-0.8l-0.8-4.2c1.7-1.6,2.9-3.7,3.4-6
		c0.6,0,1.4-0.9,1.6-2.2c0.2-1.3,0-2.4-0.7-2.6c0.5-3.4,1.4-8.1,0-9.4c-1.3-1-2.8-1.6-4.5-1.7c-1.3-3.7-9.4-1.3-11.8,0.9
		c-2.4,2.2-1.5,6.6-1.1,9.9c-0.5,0.3-0.8,1.3-0.6,2.6c0.2,1.2,0.8,2.1,1.3,2.2c0.5,2.4,1.7,4.6,3.4,6.2l-0.8,4.2h-0.7H198h-0.7h-0.2
		c-3,0.5-9.3,2.2-11.2,5.9c-1.6,4.8-2.3,9.9-2.3,15h42.3C225.8,154.5,225,149.6,223.5,144.9L223.5,144.9z"/>
	<path class="st4" d="M266.2,203h-33v21.4h4.1v9.7l7.1-9.7h2.7v-11h19.1V203z"/>
	<path class="st4" d="M248.2,214.4v21.4H270l7.1,9.7v-9.7h4.1v-21.4H248.2z M276.2,231.2h-23.1v-1h23.1V231.2z M276.2,227.3h-23.1
		v-0.9h23.1V227.3z M276.2,223.4h-23.1v-1h23.1V223.4z M276.2,219.5h-23.1v-1.1h23.1V219.5z"/>
</g>
</svg>
